# xmcd CD database file
#
# Track frame offsets:
#	150
#	22877
#	43675
#	73665
#	93920
#	114182
#	132487
#	157122
#	178682
#	191692
#
# Disc length: 2936 seconds
#
# Revision: 1
# Processed by: cddbd v1.4PL0 Copyright (c) Steve Scherf et al.
# Submitted via: CDex 1.40Release
#
DISCID=830b760a
DTITLE=trf - Brand New Tomorrow
DYEAR=1995
DGENRE=Rock
TTITLE0=BRAND NEW TOMORROW (Album Version)
TTITLE1=ALL YOU NEED IS LOVE
TTITLE2=Xmas dance wiz U (HAPPY NEW YEAR)
TTITLE3=Happening Here
TTITLE4=Hold the Line
TTITLE5=Silver and Gold dance (TK and KC)
TTITLE6=teens
TTITLE7=Winter Grooves '96
TTITLE8=R&R, Who? "t" KOO-L
TTITLE9=HOT WINTER NIGHT ~samuiyorudakara~
EXTD=YEAR: 1995 ID3G: 17
EXTT0=
EXTT1=
EXTT2=
EXTT3=
EXTT4=
EXTT5=
EXTT6=
EXTT7=
EXTT8=
EXTT9=
PLAYORDER=
